<?xml version="1.0" encoding="UTF-8" standalone="no"?>
<svg
   width="24"
   height="24"
   viewBox="0 0 24 24"
   fill="none"
   version="1.1"
   id="svg154"
   sodipodi:docname="tac4.svg"
   inkscape:version="1.4.2 (ebf0e940d0, 2025-05-08)"
   xml:space="preserve"
   inkscape:export-filename="tac4.svg"
   inkscape:export-xdpi="96"
   inkscape:export-ydpi="96"
   xmlns:inkscape="http://www.inkscape.org/namespaces/inkscape"
   xmlns:sodipodi="http://sodipodi.sourceforge.net/DTD/sodipodi-0.dtd"
   xmlns:xlink="http://www.w3.org/1999/xlink"
   xmlns="http://www.w3.org/2000/svg"
   xmlns:svg="http://www.w3.org/2000/svg"
   xmlns:sketch="http://www.bohemiancoding.com/sketch/ns"><sodipodi:namedview
     id="namedview156"
     pagecolor="#ffffff"
     bordercolor="#000000"
     borderopacity="1"
     inkscape:showpageshadow="0"
     inkscape:pageopacity="1"
     inkscape:pagecheckerboard="false"
     inkscape:deskcolor="#ffffff"
     showgrid="true"
     inkscape:zoom="32"
     inkscape:cx="9.625"
     inkscape:cy="11.78125"
     inkscape:window-width="1920"
     inkscape:window-height="1008"
     inkscape:window-x="0"
     inkscape:window-y="40"
     inkscape:window-maximized="1"
     inkscape:current-layer="svg154"
     showguides="true"
     guidecolor="#ff0000"
     guideopacity="1"
     inkscape:lockguides="true"
     showborder="true"
     borderlayer="true"><inkscape:grid
       type="xygrid"
       id="grid356"
       color="#000000"
       opacity="0.10196078"
       empcolor="#000000"
       empopacity="0.10196078"
       snapvisiblegridlinesonly="true"
       enabled="true"
       visible="true"
       dotted="false"
       originx="0"
       originy="0"
       spacingy="1"
       spacingx="1"
       units="px" /><sodipodi:guide
       position="4,12"
       orientation="-1,0"
       id="guide764"
       inkscape:locked="true"
       inkscape:label="left-circle"
       inkscape:color="rgb(255,0,0)" /><sodipodi:guide
       position="5,12"
       orientation="-1,0"
       id="guide2218"
       inkscape:locked="true"
       inkscape:label="left-square"
       inkscape:color="rgb(255,0,0)" /><sodipodi:guide
       position="12,20"
       orientation="0,1"
       id="guide2220"
       inkscape:locked="true"
       inkscape:label="top-circle"
       inkscape:color="rgb(255,0,0)" /><sodipodi:guide
       position="12,5"
       orientation="0,1"
       id="guide2222"
       inkscape:locked="true"
       inkscape:label="bottom-square"
       inkscape:color="rgb(255,0,0)" /><sodipodi:guide
       position="12,4"
       orientation="0,1"
       id="guide2224"
       inkscape:locked="true"
       inkscape:label="bottom-circle"
       inkscape:color="rgb(255,0,0)" /><sodipodi:guide
       position="19,12"
       orientation="-1,0"
       id="guide2226"
       inkscape:locked="true"
       inkscape:label="right-square"
       inkscape:color="rgb(255,0,0)" /><sodipodi:guide
       position="20,12"
       orientation="-1,0"
       id="guide2228"
       inkscape:locked="true"
       inkscape:label="right-circle"
       inkscape:color="rgb(255,0,0)" /><sodipodi:guide
       position="12,19"
       orientation="0,1"
       id="guide2230"
       inkscape:locked="true"
       inkscape:label="top-square"
       inkscape:color="rgb(255,0,0)" /><sodipodi:guide
       position="12,12"
       orientation="1,0"
       id="guide765"
       inkscape:locked="true" /><sodipodi:guide
       position="12,12"
       orientation="0,-1"
       id="guide767"
       inkscape:locked="true" /><sodipodi:guide
       position="12,12"
       orientation="0.70710678,0.70710678"
       id="guide2266"
       inkscape:locked="true"
       inkscape:label=""
       inkscape:color="rgb(255,0,0)" /><sodipodi:guide
       position="12,12"
       orientation="-0.70710678,0.70710678"
       id="guide2994"
       inkscape:locked="true"
       inkscape:label=""
       inkscape:color="rgb(255,0,0)" /><sodipodi:guide
       position="3,12"
       orientation="-1,0"
       id="guide131543"
       inkscape:locked="true"
       inkscape:label="left-horizontal"
       inkscape:color="rgb(255,0,0)" /><sodipodi:guide
       position="12,21"
       orientation="0,1"
       id="guide131545"
       inkscape:locked="true"
       inkscape:label="top-vertical"
       inkscape:color="rgb(255,0,0)" /><sodipodi:guide
       position="21,12"
       orientation="-1,0"
       id="guide131547"
       inkscape:locked="true"
       inkscape:label="right-horizontal"
       inkscape:color="rgb(255,0,0)" /><sodipodi:guide
       position="12,3"
       orientation="0,1"
       id="guide131549"
       inkscape:locked="true"
       inkscape:label="bottom-vertical"
       inkscape:color="rgb(255,0,0)" /><inkscape:page
       x="0"
       y="0"
       width="24"
       height="24"
       id="page2"
       margin="0"
       bleed="0" /></sodipodi:namedview><defs
     id="defs152"><linearGradient
       id="linearGradient1"
       inkscape:collect="always"><stop
         style="stop-color:#002255;stop-opacity:1"
         offset="0"
         id="stop1" /><stop
         style="stop-color:#333333;stop-opacity:1"
         offset="0.68274236"
         id="stop3" /><stop
         style="stop-color:#808080;stop-opacity:1"
         offset="1"
         id="stop2" /></linearGradient><radialGradient
       id="radialGradient66380"
       cx="0"
       cy="0"
       r="1"
       gradientUnits="userSpaceOnUse"
       gradientTransform="matrix(0,22,-22,0,12,1)"><stop
         stop-color="#8FC8FF"
         id="stop66376"
         offset="0"
         style="stop-color:#decd87;stop-opacity:1" /><stop
         stop-color="#8FC8FF"
         id="stop25"
         offset="0.49749109"
         style="stop-color:#ffcc00;stop-opacity:1" /><stop
         offset="1"
         stop-color="#0056A8"
         id="stop66378"
         style="stop-color:#ffe680;stop-opacity:1" /></radialGradient><radialGradient
       inkscape:collect="always"
       xlink:href="#radialGradient66380"
       id="radialGradient1161"
       gradientUnits="userSpaceOnUse"
       gradientTransform="matrix(0,22.014536,-22.001665,0,-26.468109,-2.9576728)"
       cx="0.17911513"
       cy="-1.7483425"
       r="1"
       fx="0.17911513"
       fy="-1.7483425" /><linearGradient
       inkscape:collect="always"
       xlink:href="#linearGradient1"
       id="linearGradient2"
       x1="11.84375"
       y1="4.09375"
       x2="11.929917"
       y2="18.943401"
       gradientUnits="userSpaceOnUse" /></defs><path
     d="M 12,0.99999998 C 2,0.99999998 0.99999998,6 0.99999998,12 0.99999998,20 4.0000001,23 12,23 20,23 23,20 23,12 23,6 22,0.99999998 12,0.99999998 Z"
     sketch:type="MSShapeGroup"
     id="path6"
     style="font-variation-settings:normal;display:inline;opacity:1;vector-effect:none;fill:url(#radialGradient1161);fill-opacity:1;stroke-width:1.11627;stroke-linecap:butt;stroke-linejoin:miter;stroke-miterlimit:4;stroke-dasharray:none;stroke-dashoffset:0;stroke-opacity:1;-inkscape-stroke:none;stop-color:#000000;stop-opacity:1"
     sodipodi:nodetypes="sssss"
     inkscape:label="Shape"
     sodipodi:insensitive="true" /><path
     style="clip-rule:nonzero;fill:url(#linearGradient2);fill-opacity:1;fill-rule:nonzero;stroke:none;stroke-width:0.09;stroke-opacity:1;stroke-dasharray:none"
     d="m 19.015725,15.444883 c 0,-0.03167 -0.0073,-0.06388 -0.02268,-0.09337 -0.188746,-0.364848 -0.484217,-0.628652 -0.878173,-0.787186 V 13.76762 c 0,-0.112035 -0.09098,-0.203016 -0.202837,-0.203016 h -1.547644 c -0.108379,0 -0.197164,0.08512 -0.202474,0.192581 -0.631396,-0.127415 -1.324851,-0.10929 -2.065359,0.05436 -0.409522,0.09062 -0.84119,0.227547 -1.290433,0.409152 1.482472,-1.144715 3.341695,-1.428832 5.64614,-0.869564 0.108742,0.02618 0.21876,-0.0408 0.245124,-0.149567 0.02618,-0.108742 -0.04047,-0.218952 -0.149567,-0.245124 -1.474233,-0.358084 -2.812084,-0.37767 -3.975293,-0.05898 -1.069842,0.29309 -2.018305,0.879086 -2.822703,1.742976 C 10.917424,13.763912 9.9409433,13.152651 8.8443741,12.821664 7.7057034,12.477685 6.4084926,12.427886 4.9889912,12.673929 c -0.1103883,0.01904 -0.1841634,0.124307 -0.1653047,0.234874 0.019044,0.110574 0.1241157,0.184349 0.2346891,0.165311 2.2162026,-0.384256 4.0853177,-0.01078 5.5751094,1.110297 -0.8283747,-0.340316 -1.5767521,-0.525214 -2.2958363,-0.571898 -1.2025667,-0.07799 -2.3231193,0.239821 -3.4260959,0.972084 -0.091351,0.06044 -0.1180786,0.182153 -0.06057,0.275514 l 0.1991737,0.323117 c -0.046155,0.0291 -0.092264,0.05892 -0.1385838,0.08934 -0.091351,0.06077 -0.1180785,0.182702 -0.06057,0.276063 l 0.21913,0.355333 h -0.050718 c -0.3038884,0.002 -0.5506651,0.251526 -0.5506651,0.555051 0,0.30371 0.2467767,0.55286 0.5521264,0.555241 l 10.240571,3.77e-4 c 0.0117,0.32641 0.279905,0.588197 0.608696,0.588197 h 2.53602 c 0.336475,0 0.609979,-0.273689 0.609979,-0.609979 l -3.77e-4,-1.547644 z m -2.448517,-1.474239 h 1.141785 v 0.53254 h -1.141785 z m -0.172632,0.938584 h 1.484668 c 0.220597,0.07524 0.400549,0.185261 0.542611,0.332633 h -2.567146 c 0.145904,-0.155426 0.324764,-0.26508 0.539867,-0.332633 z m -4.738502,0.211076 c 0.05984,0.0322 0.131443,0.0322 0.191127,0 1.678167,-0.896298 3.128423,-1.214462 4.314148,-0.947551 v 0.255195 c -0.554329,-0.145904 -1.222338,-0.132911 -1.9914,0.04119 -0.741606,0.168056 -1.57529,0.48952 -2.418312,0.930894 -1.297574,-0.683026 -2.3849917,-1.032864 -3.4140081,-1.099498 -1.0259085,-0.06612 -1.9915842,0.155419 -2.9382227,0.676249 l -0.098307,-0.160002 c 1.8696639,-1.165583 3.7832609,-1.07039 6.3549758,0.303525 z m 3.604401,1.488331 -10.2378198,-3.77e-4 c -0.082014,-5.49e-4 -0.1480991,-0.06755 -0.1480991,-0.149197 0,-0.08146 0.066058,-0.148648 0.1462674,-0.149567 H 15.260475 Z m 0.024,-1.259864 c -0.01574,0.02982 -0.024,0.06295 -0.024,0.09611 v 0.45858 H 5.5465927 L 5.3007352,15.504746 c 1.8700276,-1.16522 3.7836246,-1.070027 6.3553388,0.304073 0.05984,0.0322 0.131442,0.0322 0.191127,0 1.53959,-0.822523 2.935471,-1.187371 3.936848,-1.043299 -0.202473,0.147735 -0.369616,0.342703 -0.499591,0.583251 z m 3.325408,1.64412 c 0,0.112405 -0.09099,0.203941 -0.203756,0.203941 h -2.53602 c -0.11222,0 -0.203756,-0.09154 -0.203756,-0.203941 v -1.344986 h 2.944081 v 1.344986 z m -5.364949,-4.856389 c -0.03624,0.08164 -0.07012,0.158719 -0.19881,0.485856 -0.04067,0.104352 0.01045,0.22206 0.1146,0.263249 0.02453,0.0095 0.0494,0.01408 0.07432,0.01408 0.08109,0 0.157621,-0.04887 0.188925,-0.129062 0.125398,-0.319083 0.15762,-0.392495 0.192038,-0.469933 0.0326,-0.07395 0.06645,-0.15048 0.173359,-0.419772 0.967144,-0.150843 1.833414,-0.992039 2.512044,-2.440827 0.03624,-0.07762 0.0203,-0.169153 -0.03987,-0.22938 -6.61e-4,-0.0013 -0.002,-0.002 -0.0033,-0.004 0.067,-0.05475 0.134372,-0.113318 0.202473,-0.176295 0.02215,-0.0203 0.03935,-0.04523 0.05072,-0.0734 0.213271,-0.530159 0.393044,-1.105357 0.535284,-1.708928 0.01501,-0.06388 -0.002,-0.129062 -0.04265,-0.177577 0.02671,-0.03042 0.0531,-0.06169 0.07982,-0.09391 0.02089,-0.02526 0.03531,-0.05568 0.04212,-0.08842 0.175197,-0.852907 0.254097,-1.6798205 0.222794,-2.3293417 -0.0033,-0.068465 -0.04067,-0.1305231 -0.09959,-0.1649409 -0.05931,-0.03498 -0.131806,-0.037162 -0.192952,-0.00674 -0.660326,0.3276866 -1.395518,0.9371165 -2.069386,1.7166126 -0.01865,0.02142 -0.0322,0.04629 -0.0408,0.07304 -0.01481,0.0494 -0.0289,0.09923 -0.04153,0.149018 -0.06295,-0.002 -0.125035,0.02546 -0.16586,0.07616 -0.36229,0.45364 -0.677532,0.926867 -0.937117,1.406686 -0.01448,0.02724 -0.02268,0.05766 -0.024,0.08897 -0.004,0.09098 -0.004,0.182153 -0.0013,0.273134 -0.004,-3.77e-4 -0.0073,-6.62e-4 -0.01137,-0.0013 -0.08385,-0.0073 -0.163116,0.03842 -0.199729,0.113681 -0.327138,0.674781 -0.505442,1.300689 -0.530894,1.859408 -0.02638,0.572453 0.106368,1.092728 0.393051,1.549476 -0.115883,0.293639 -0.149752,0.369795 -0.182523,0.444119 z m 0.496112,-3.24797 c 0.06202,0.112035 0.13254,0.214369 0.211803,0.306818 0.0617,0.07158 0.164578,0.09154 0.247875,0.04794 0.08366,-0.04397 0.126317,-0.139496 0.102698,-0.231032 -0.08952,-0.346731 -0.130894,-0.700596 -0.121735,-1.052266 0.165304,-0.301514 0.35368,-0.600457 0.56348,-0.893732 0.02433,0.108742 0.05746,0.209793 0.09903,0.303161 0.04047,0.09062 0.140045,0.138762 0.235972,0.113681 0.09611,-0.02433 0.160002,-0.114964 0.151399,-0.21382 -0.02764,-0.317259 0.0033,-0.630484 0.09062,-0.932177 0.525405,-0.601925 1.102791,-1.1062698 1.627827,-1.4266364 -0.0053,0.5427896 -0.07798,1.1840714 -0.211076,1.8467714 -0.203386,0.240554 -0.410435,0.428196 -0.631397,0.572817 -0.08256,0.05435 -0.114594,0.160001 -0.07524,0.250618 0.03901,0.09062 0.137301,0.140046 0.233227,0.116796 0.09428,-0.02255 0.184349,-0.05019 0.269471,-0.08384 -0.110937,0.401647 -0.239086,0.786267 -0.383158,1.14929 -0.302428,0.274232 -0.585996,0.454553 -0.864988,0.551578 -0.09337,0.0322 -0.149931,0.127415 -0.133638,0.225174 0.01627,0.09757 0.100139,0.169153 0.199174,0.169516 0.129247,0.0013 0.254096,-0.0086 0.373272,-0.02764 -0.4,0.736111 -0.975561,1.488331 -1.733275,1.734373 0.642201,-1.663163 1.476071,-3.451904 2.424905,-5.197994 0.05343,-0.09849 0.01719,-0.221696 -0.08147,-0.275515 -0.09831,-0.05363 -0.22151,-0.01686 -0.274965,0.08147 -0.947921,1.744437 -1.78234,3.531723 -2.428198,5.19726 -0.294373,-0.644026 -0.259043,-1.413642 0.108378,-2.332634 z m 0,0"
     id="path2-3"
     clip-path="url(#clipPath2)" /></svg>
