<?xml version="1.0" encoding="UTF-8" standalone="no"?>
<svg
   viewBox="0 0 24 24"
   version="1.1"
   id="svg11414"
   sodipodi:docname="tac-writer.svg"
   width="24"
   height="24"
   xml:space="preserve"
   inkscape:version="1.4 (e7c3feb100, 2024-10-09)"
   inkscape:export-filename="restaurar.png"
   inkscape:export-xdpi="800"
   inkscape:export-ydpi="800"
   xmlns:inkscape="http://www.inkscape.org/namespaces/inkscape"
   xmlns:sodipodi="http://sodipodi.sourceforge.net/DTD/sodipodi-0.dtd"
   xmlns:xlink="http://www.w3.org/1999/xlink"
   xmlns="http://www.w3.org/2000/svg"
   xmlns:svg="http://www.w3.org/2000/svg"><sodipodi:namedview
     id="namedview11416"
     pagecolor="#ffffff"
     bordercolor="#000000"
     borderopacity="0.25"
     inkscape:showpageshadow="2"
     inkscape:pageopacity="0.0"
     inkscape:pagecheckerboard="0"
     inkscape:deskcolor="#d1d1d1"
     showgrid="false"
     inkscape:zoom="11.313709"
     inkscape:cx="-14.937631"
     inkscape:cy="16.749592"
     inkscape:window-width="2752"
     inkscape:window-height="1086"
     inkscape:window-x="0"
     inkscape:window-y="0"
     inkscape:window-maximized="1"
     inkscape:current-layer="svg11414"
     showguides="true"><inkscape:page
       x="0"
       y="0"
       width="24"
       height="24"
       id="page2"
       margin="0"
       bleed="0" /></sodipodi:namedview><defs
     id="defs11384"><style
       id="style11382">.cls-1{fill:#069;}.cls-2{fill:#2991c9;}.cls-3{fill:#fff;}.cls-4{fill:#002a44;}.cls-5{fill:#3380cc;}.cls-6{fill:#cc5e55;}</style><style
       id="style1">.cls-1{fill:#16171c;stroke:#000;stroke-miterlimit:10;}.cls-2{fill:#2c2d3d;}.cls-3{fill:url(#linear-gradient);}.cls-4{fill:url(#linear-gradient-2);}.cls-5{fill:url(#linear-gradient-3);}</style><style
       id="style2">.cls-1{stroke:#333;stroke-miterlimit:10;stroke-width:6px;fill:url(#linear-gradient);}.cls-2{fill:url(#linear-gradient-2);}.cls-3{fill:#0d0e0e;}.cls-4{opacity:0.7;isolation:isolate;fill:url(#linear-gradient-3);}</style><linearGradient
       inkscape:collect="always"
       xlink:href="#linearGradient77-2"
       id="linearGradient73"
       gradientUnits="userSpaceOnUse"
       gradientTransform="matrix(22,0,0,22,-1e-5,-0.0079859)"
       x1="0.050000001"
       x2="1"
       y2="1" /><linearGradient
       id="linearGradient77-2"
       x1="0.050000001"
       x2="1"
       y2="1"
       gradientTransform="matrix(22,0,0,22,-56.75,-22.125)"
       gradientUnits="userSpaceOnUse"><stop
         stop-color="#7e0000"
         offset="0.2"
         id="stop75-4"
         style="stop-color:#806600;stop-opacity:1" /><stop
         stop-color="#ae0003"
         offset="0.205"
         id="stop76-7"
         style="stop-color:#ffcc00;stop-opacity:1" /><stop
         stop-color="#7e0002"
         offset="1"
         id="stop77-7"
         style="stop-color:#ffcc00;stop-opacity:1" /></linearGradient></defs><rect
     x="1"
     y="0.99201387"
     width="22"
     height="22"
     rx="6.5999999"
     fill="url(#a)"
     opacity="0.9"
     stroke="#808080"
     stroke-opacity="0.2"
     vector-effect="non-scaling-stroke"
     style="fill:url(#linearGradient73);-inkscape-stroke:hairline"
     id="rect73" /><path
     style="clip-rule:nonzero;fill:#162d50;fill-opacity:1;fill-rule:nonzero;stroke:none;stroke-width:0.0573166"
     d="m 20.895416,17.455229 c 0,-0.03873 -0.0089,-0.07814 -0.02778,-0.114185 -0.230833,-0.446216 -0.592198,-0.768848 -1.074019,-0.962744 v -0.974386 c 0,-0.137023 -0.111278,-0.248297 -0.248071,-0.248297 h -1.892802 c -0.13254,0 -0.241133,0.104113 -0.247625,0.235535 -0.772211,-0.155828 -1.620322,-0.133663 -2.525976,0.06651 -0.500851,0.11082 -1.028787,0.278297 -1.578223,0.5004 1.813095,-1.400012 4.08696,-1.747491 6.905336,-1.063495 0.132994,0.03203 0.267553,-0.04995 0.299798,-0.18292 0.03203,-0.132992 -0.04947,-0.267778 -0.182926,-0.299797 -1.803015,-0.437937 -3.439233,-0.461894 -4.861859,-0.07209 -1.308433,0.358448 -2.468426,1.075134 -3.452221,2.131688 C 10.991005,15.399457 9.7967551,14.651875 8.4556281,14.247072 7.0630071,13.826374 5.4764907,13.765478 3.740421,14.066391 c -0.1350119,0.02327 -0.2252365,0.152023 -0.2021757,0.287253 0.023267,0.135231 0.1517977,0.225463 0.2870286,0.202177 2.7104613,-0.469955 4.9964191,-0.01321 6.8184701,1.35792 C 9.630621,15.497523 8.715346,15.27139 7.8358869,15.214292 6.3651263,15.118912 4.9946767,15.507596 3.6457142,16.403171 3.5339896,16.477051 3.5013,16.625944 3.5716052,16.740132 l 0.2435962,0.395176 c -0.056386,0.03558 -0.1128402,0.07209 -0.1694868,0.109251 -0.1117246,0.07433 -0.1444142,0.22345 -0.07411,0.337632 l 0.2679985,0.434584 h -0.061997 c -0.3716638,0.0027 -0.6734732,0.307622 -0.6734732,0.67884 0,0.371436 0.3018094,0.676161 0.6752648,0.679069 l 12.5244033,4.58e-4 c 0.01431,0.399206 0.342333,0.719375 0.744447,0.719375 h 3.101606 c 0.411515,0 0.746013,-0.334724 0.746013,-0.746014 l -4.59e-4,-1.892802 z m -2.994589,-1.80302 h 1.396433 v 0.651307 h -1.396433 z m -0.211126,1.147908 h 1.815777 c 0.26979,0.09201 0.489881,0.226578 0.663625,0.406815 h -3.139667 c 0.178445,-0.190091 0.397187,-0.3242 0.660265,-0.406815 z m -5.795274,0.258145 c 0.07321,0.03942 0.160755,0.03942 0.233742,0 2.052441,-1.096184 3.826126,-1.485309 5.27629,-1.158872 v 0.312108 c -0.677954,-0.178444 -1.494944,-0.162548 -2.435518,0.05036 -0.906995,0.20553 -1.926612,0.598693 -2.957643,1.138501 C 10.424337,16.56501 9.094411,16.137147 7.8358992,16.055654 6.5811987,15.974821 5.400156,16.245737 4.2423999,16.882716 L 4.1221687,16.687035 c 2.2866349,-1.425534 4.6269943,-1.309107 7.7722583,0.371213 z m 4.408251,1.820258 -12.5210499,-4.59e-4 c -0.1003048,-6.7e-4 -0.1811267,-0.08262 -0.1811267,-0.182474 0,-0.09964 0.080822,-0.181797 0.178889,-0.18292 H 16.302678 Z m 0.02936,-1.540839 c -0.01923,0.03648 -0.02936,0.07702 -0.02936,0.117551 v 0.56085 H 4.4224111 L 4.121724,17.528443 c 2.2870797,-1.425084 4.627439,-1.308665 7.772703,0.371887 0.07321,0.03942 0.160755,0.03942 0.233742,0 1.882955,-1.005957 3.590147,-1.452174 4.814848,-1.275975 -0.247634,0.180682 -0.452047,0.419133 -0.61101,0.713326 z m 4.067034,2.010794 c 0,0.137469 -0.111279,0.24942 -0.249192,0.24942 h -3.101607 c -0.137243,0 -0.249195,-0.111954 -0.249195,-0.24942 v -1.644949 h 3.600664 v 1.644949 z m -6.561434,-5.939463 c -0.04434,0.09985 -0.08575,0.194122 -0.243151,0.594218 -0.04969,0.12762 0.0128,0.271584 0.140157,0.321961 0.02997,0.0116 0.06042,0.01725 0.0909,0.01725 0.09918,0 0.192774,-0.05981 0.231059,-0.157846 0.153365,-0.390242 0.192768,-0.480028 0.234865,-0.574735 0.03983,-0.09044 0.08128,-0.184041 0.212024,-0.513387 1.182835,-0.184487 2.242298,-1.21328 3.072275,-2.985181 0.04434,-0.09492 0.02484,-0.2068755 -0.04879,-0.2805337 -0.0014,-0.0014 -0.0027,-0.00268 -0.0041,-0.00484 0.08194,-0.066923 0.164341,-0.1385841 0.247626,-0.2156082 0.02709,-0.024836 0.04817,-0.055295 0.062,-0.089783 0.260841,-0.6483991 0.480705,-1.3518702 0.654668,-2.0900495 0.01833,-0.078142 -0.002,-0.1578475 -0.05215,-0.2171764 0.03271,-0.037152 0.06493,-0.075452 0.09761,-0.114861 0.02552,-0.03093 0.04325,-0.068083 0.05146,-0.108142 0.214267,-1.0431225 0.310767,-2.0544527 0.27248,-2.8488271 -0.0041,-0.083739 -0.04969,-0.1596401 -0.121796,-0.2017303 -0.07255,-0.042775 -0.161207,-0.04544 -0.235986,-0.00829 -0.807582,0.400773 -1.706741,1.1461162 -2.530895,2.0994601 -0.02286,0.026213 -0.03942,0.056659 -0.04995,0.089324 -0.01813,0.060497 -0.03538,0.1213505 -0.05084,0.1822565 -0.07702,-0.00268 -0.15292,0.031135 -0.202854,0.093136 -0.443082,0.5548071 -0.828629,1.1335732 -1.146109,1.7203983 -0.01772,0.033391 -0.02778,0.070531 -0.02935,0.108805 -0.0048,0.1112783 -0.0048,0.2227735 -0.0014,0.3340544 -0.0048,-4.59e-4 -0.0089,-0.0014 -0.01389,-0.0014 -0.102545,-0.00892 -0.199486,0.047008 -0.244266,0.1390355 -0.400095,0.8252767 -0.618167,1.5907734 -0.649288,2.2740924 -0.03223,0.700118 0.130077,1.336427 0.480697,1.895039 -0.141724,0.359126 -0.183145,0.452266 -0.223225,0.543168 z m 0.606753,-3.9723267 c 0.0759,0.1370235 0.162095,0.2621823 0.259041,0.3752482 0.07545,0.087539 0.201279,0.1119541 0.303157,0.058648 0.102315,-0.053714 0.15448,-0.1706086 0.125609,-0.2825601 -0.109494,-0.4240524 -0.160084,-0.8568357 -0.14889,-1.2869379 0.202177,-0.3687537 0.432565,-0.7343735 0.689143,-1.093055 0.02977,0.1329922 0.0703,0.2565841 0.121121,0.3707719 0.04947,0.1108322 0.171279,0.1697136 0.288602,0.1390368 0.117539,-0.02977 0.195682,-0.1406037 0.185157,-0.2615054 -0.0338,-0.3880094 0.0041,-0.7710937 0.110833,-1.140073 0.642575,-0.736161 1.348736,-1.3529872 1.990861,-1.7448011 -0.0061,0.6638429 -0.09538,1.4481438 -0.258144,2.25864 -0.24875,0.2941992 -0.501973,0.5236853 -0.77221,0.7005629 -0.100976,0.066514 -0.140157,0.1956882 -0.09203,0.3065102 0.0477,0.1108321 0.16792,0.1712804 0.285243,0.1428476 0.115307,-0.027514 0.225462,-0.061313 0.32957,-0.1025449 -0.135682,0.4912236 -0.292407,0.9616234 -0.468607,1.4056022 -0.369876,0.3353942 -0.716685,0.5559302 -1.057903,0.6745944 -0.114186,0.039422 -0.183371,0.1558279 -0.163445,0.2753889 0.01991,0.119336 0.122473,0.206876 0.243604,0.207328 0.158065,0.002 0.310759,-0.01058 0.456515,-0.0338 -0.489205,0.900283 -1.193128,1.820258 -2.119823,2.121172 0.785415,-2.034074 1.805251,-4.2217397 2.965697,-6.3572403 0.06535,-0.1204581 0.02101,-0.2711391 -0.09964,-0.3369626 -0.120221,-0.065622 -0.270905,-0.020591 -0.336283,0.099638 -1.159323,2.1334823 -2.179829,4.3193619 -2.969729,6.3563439 -0.360022,-0.787653 -0.316809,-1.728905 0.132549,-2.8528575 z m 0,0"
     id="path2"
     clip-path="url(#clipPath2)" /></svg>
